<svg width="6" height="5" viewBox="0 0 6 5" fill="none" xmlns="http://www.w3.org/2000/svg">
<path d="M4 5H1.25V1.75L3 0L3.3125 0.3125C3.34167 0.341667 3.36563 0.38125 3.38438 0.43125C3.40313 0.48125 3.4125 0.529167 3.4125 0.575V0.6625L3.1375 1.75H4.75C4.88333 1.75 5 1.8 5.1 1.9C5.2 2 5.25 2.11667 5.25 2.25V2.75C5.25 2.77917 5.24583 2.81042 5.2375 2.84375C5.22917 2.87708 5.22083 2.90833 5.2125 2.9375L4.4625 4.7C4.425 4.78333 4.3625 4.85417 4.275 4.9125C4.1875 4.97083 4.09583 5 4 5ZM1.75 4.5H4L4.75 2.75V2.25H2.5L2.8375 0.875L1.75 1.9625V4.5ZM1.25 1.75V2.25H0.5V4.5H1.25V5H0V1.75H1.25Z" fill="white"/>
</svg>
