<svg width="20" height="20" viewBox="0 0 20 20" fill="none" xmlns="http://www.w3.org/2000/svg">
<path d="M5.83333 16.6667H14.1667M7.5 13.3334V16.6667M12.5 13.3334V16.6667M6.66667 10L9.16667 7.50004L10.8333 9.16671L13.3333 6.66671M2.5 4.16671C2.5 3.94569 2.5878 3.73373 2.74408 3.57745C2.90036 3.42117 3.11232 3.33337 3.33333 3.33337H16.6667C16.8877 3.33337 17.0996 3.42117 17.2559 3.57745C17.4122 3.73373 17.5 3.94569 17.5 4.16671V12.5C17.5 12.7211 17.4122 12.933 17.2559 13.0893C17.0996 13.2456 16.8877 13.3334 16.6667 13.3334H3.33333C3.11232 13.3334 2.90036 13.2456 2.74408 13.0893C2.5878 12.933 2.5 12.7211 2.5 12.5V4.16671Z" stroke="#2E2E2E" stroke-width="1.25" stroke-linecap="round" stroke-linejoin="round"/>
</svg>
