<svg width="20" height="20" viewBox="0 0 20 20" fill="none" xmlns="http://www.w3.org/2000/svg">
<path d="M3.33325 5C3.33325 5.66304 4.03563 6.29893 5.28587 6.76777C6.53612 7.23661 8.23181 7.5 9.99992 7.5C11.768 7.5 13.4637 7.23661 14.714 6.76777C15.9642 6.29893 16.6666 5.66304 16.6666 5M3.33325 5C3.33325 4.33696 4.03563 3.70107 5.28587 3.23223C6.53612 2.76339 8.23181 2.5 9.99992 2.5C11.768 2.5 13.4637 2.76339 14.714 3.23223C15.9642 3.70107 16.6666 4.33696 16.6666 5M3.33325 5V10M16.6666 5V10M3.33325 10C3.33325 10.663 4.03563 11.2989 5.28587 11.7678C6.53612 12.2366 8.23181 12.5 9.99992 12.5C11.768 12.5 13.4637 12.2366 14.714 11.7678C15.9642 11.2989 16.6666 10.663 16.6666 10M3.33325 10V15C3.33325 15.663 4.03563 16.2989 5.28587 16.7678C6.53612 17.2366 8.23181 17.5 9.99992 17.5C11.768 17.5 13.4637 17.2366 14.714 16.7678C15.9642 16.2989 16.6666 15.663 16.6666 15V10" stroke="#2E2E2E" stroke-width="1.25" stroke-linecap="round" stroke-linejoin="round"/>
</svg>
