<svg width="16" height="16" viewBox="0 0 16 16" fill="none" xmlns="http://www.w3.org/2000/svg">
<path d="M2.66675 4C2.66675 4.53043 3.22865 5.03914 4.22885 5.41421C5.22904 5.78929 6.58559 6 8.00008 6C9.41457 6 10.7711 5.78929 11.7713 5.41421C12.7715 5.03914 13.3334 4.53043 13.3334 4M2.66675 4C2.66675 3.46957 3.22865 2.96086 4.22885 2.58579C5.22904 2.21071 6.58559 2 8.00008 2C9.41457 2 10.7711 2.21071 11.7713 2.58579C12.7715 2.96086 13.3334 3.46957 13.3334 4M2.66675 4V8M13.3334 4V8M2.66675 8C2.66675 8.53043 3.22865 9.03914 4.22885 9.41421C5.22904 9.78929 6.58559 10 8.00008 10C9.41457 10 10.7711 9.78929 11.7713 9.41421C12.7715 9.03914 13.3334 8.53043 13.3334 8M2.66675 8V12C2.66675 12.5304 3.22865 13.0391 4.22885 13.4142C5.22904 13.7893 6.58559 14 8.00008 14C9.41457 14 10.7711 13.7893 11.7713 13.4142C12.7715 13.0391 13.3334 12.5304 13.3334 12V8" stroke="#D36E8B" stroke-width="1.5" stroke-linecap="round" stroke-linejoin="round"/>
</svg>
