<svg width="10" height="10" viewBox="0 0 10 10" fill="none" xmlns="http://www.w3.org/2000/svg">
<path d="M5 3L2.5 5.5L3.2 6.2L4.5 4.9125V10H5.5V4.9125L6.8 6.2L7.5 5.5L5 3ZM0.825 7.75C0.558333 7.34167 0.354167 6.90417 0.2125 6.4375C0.0708333 5.97083 0 5.49167 0 5C0 4.30833 0.13125 3.65833 0.39375 3.05C0.65625 2.44167 1.0125 1.9125 1.4625 1.4625C1.9125 1.0125 2.44167 0.65625 3.05 0.39375C3.65833 0.13125 4.30833 0 5 0C5.69167 0 6.34167 0.13125 6.95 0.39375C7.55833 0.65625 8.0875 1.0125 8.5375 1.4625C8.9875 1.9125 9.34375 2.44167 9.60625 3.05C9.86875 3.65833 10 4.30833 10 5C10 5.49167 9.92917 5.97083 9.7875 6.4375C9.64583 6.90417 9.44167 7.34167 9.175 7.75L8.45 7.025C8.63333 6.71667 8.77083 6.39167 8.8625 6.05C8.95417 5.70833 9 5.35833 9 5C9 3.88333 8.6125 2.9375 7.8375 2.1625C7.0625 1.3875 6.11667 1 5 1C3.88333 1 2.9375 1.3875 2.1625 2.1625C1.3875 2.9375 1 3.88333 1 5C1 5.35833 1.04583 5.70833 1.1375 6.05C1.22917 6.39167 1.36667 6.71667 1.55 7.025L0.825 7.75Z" fill="white"/>
</svg>
