<svg width="20" height="20" viewBox="0 0 20 20" fill="none" xmlns="http://www.w3.org/2000/svg">
<path d="M4.99992 9.99992C4.55789 9.99992 4.13397 9.82432 3.82141 9.51176C3.50885 9.1992 3.33325 8.77528 3.33325 8.33325C3.33325 7.89122 3.50885 7.4673 3.82141 7.15474C4.13397 6.84218 4.55789 6.66659 4.99992 6.66659M4.99992 9.99992C5.44195 9.99992 5.86587 9.82432 6.17843 9.51176C6.49099 9.1992 6.66659 8.77528 6.66659 8.33325C6.66659 7.89122 6.49099 7.4673 6.17843 7.15474C5.86587 6.84218 5.44195 6.66659 4.99992 6.66659M4.99992 9.99992V16.6666M4.99992 6.66659V3.33325M9.99992 14.9999C9.55789 14.9999 9.13397 14.8243 8.82141 14.5118C8.50885 14.1992 8.33325 13.7753 8.33325 13.3333C8.33325 12.8912 8.50885 12.4673 8.82141 12.1547C9.13397 11.8422 9.55789 11.6666 9.99992 11.6666M9.99992 14.9999C10.4419 14.9999 10.8659 14.8243 11.1784 14.5118C11.491 14.1992 11.6666 13.7753 11.6666 13.3333C11.6666 12.8912 11.491 12.4673 11.1784 12.1547C10.8659 11.8422 10.4419 11.6666 9.99992 11.6666M9.99992 14.9999V16.6666M9.99992 11.6666V3.33325M14.9999 7.49992C14.5579 7.49992 14.134 7.32432 13.8214 7.01176C13.5088 6.6992 13.3333 6.27528 13.3333 5.83325C13.3333 5.39122 13.5088 4.9673 13.8214 4.65474C14.134 4.34218 14.5579 4.16659 14.9999 4.16659M14.9999 7.49992C15.4419 7.49992 15.8659 7.32432 16.1784 7.01176C16.491 6.6992 16.6666 6.27528 16.6666 5.83325C16.6666 5.39122 16.491 4.9673 16.1784 4.65474C15.8659 4.34218 15.4419 4.16659 14.9999 4.16659M14.9999 7.49992V16.6666M14.9999 4.16659V3.33325" stroke="#2E2E2E" stroke-width="1.25" stroke-linecap="round" stroke-linejoin="round"/>
</svg>
