<svg width="16" height="16" viewBox="0 0 16 16" fill="none" xmlns="http://www.w3.org/2000/svg">
<path d="M5.33325 3.33329C5.33325 3.5101 5.40349 3.67967 5.52851 3.8047C5.65354 3.92972 5.82311 3.99996 5.99992 3.99996C6.17673 3.99996 6.3463 3.92972 6.47132 3.8047C6.59635 3.67967 6.66659 3.5101 6.66659 3.33329C6.66659 3.15648 6.59635 2.98691 6.47132 2.86189C6.3463 2.73686 6.17673 2.66663 5.99992 2.66663C5.82311 2.66663 5.65354 2.73686 5.52851 2.86189C5.40349 2.98691 5.33325 3.15648 5.33325 3.33329Z" stroke="#2E2E2E" stroke-linecap="round" stroke-linejoin="round"/>
<path d="M5.33325 7.99996C5.33325 8.17677 5.40349 8.34634 5.52851 8.47136C5.65354 8.59639 5.82311 8.66663 5.99992 8.66663C6.17673 8.66663 6.3463 8.59639 6.47132 8.47136C6.59635 8.34634 6.66659 8.17677 6.66659 7.99996C6.66659 7.82315 6.59635 7.65358 6.47132 7.52856C6.3463 7.40353 6.17673 7.33329 5.99992 7.33329C5.82311 7.33329 5.65354 7.40353 5.52851 7.52856C5.40349 7.65358 5.33325 7.82315 5.33325 7.99996Z" stroke="#2E2E2E" stroke-linecap="round" stroke-linejoin="round"/>
<path d="M5.33325 12.6666C5.33325 12.8434 5.40349 13.013 5.52851 13.138C5.65354 13.2631 5.82311 13.3333 5.99992 13.3333C6.17673 13.3333 6.3463 13.2631 6.47132 13.138C6.59635 13.013 6.66659 12.8434 6.66659 12.6666C6.66659 12.4898 6.59635 12.3202 6.47132 12.1952C6.3463 12.0702 6.17673 12 5.99992 12C5.82311 12 5.65354 12.0702 5.52851 12.1952C5.40349 12.3202 5.33325 12.4898 5.33325 12.6666Z" stroke="#2E2E2E" stroke-linecap="round" stroke-linejoin="round"/>
<path d="M9.33325 3.33329C9.33325 3.5101 9.40349 3.67967 9.52851 3.8047C9.65354 3.92972 9.82311 3.99996 9.99992 3.99996C10.1767 3.99996 10.3463 3.92972 10.4713 3.8047C10.5963 3.67967 10.6666 3.5101 10.6666 3.33329C10.6666 3.15648 10.5963 2.98691 10.4713 2.86189C10.3463 2.73686 10.1767 2.66663 9.99992 2.66663C9.82311 2.66663 9.65354 2.73686 9.52851 2.86189C9.40349 2.98691 9.33325 3.15648 9.33325 3.33329Z" stroke="#2E2E2E" stroke-linecap="round" stroke-linejoin="round"/>
<path d="M9.33325 7.99996C9.33325 8.17677 9.40349 8.34634 9.52851 8.47136C9.65354 8.59639 9.82311 8.66663 9.99992 8.66663C10.1767 8.66663 10.3463 8.59639 10.4713 8.47136C10.5963 8.34634 10.6666 8.17677 10.6666 7.99996C10.6666 7.82315 10.5963 7.65358 10.4713 7.52856C10.3463 7.40353 10.1767 7.33329 9.99992 7.33329C9.82311 7.33329 9.65354 7.40353 9.52851 7.52856C9.40349 7.65358 9.33325 7.82315 9.33325 7.99996Z" stroke="#2E2E2E" stroke-linecap="round" stroke-linejoin="round"/>
<path d="M9.33325 12.6666C9.33325 12.8434 9.40349 13.013 9.52851 13.138C9.65354 13.2631 9.82311 13.3333 9.99992 13.3333C10.1767 13.3333 10.3463 13.2631 10.4713 13.138C10.5963 13.013 10.6666 12.8434 10.6666 12.6666C10.6666 12.4898 10.5963 12.3202 10.4713 12.1952C10.3463 12.0702 10.1767 12 9.99992 12C9.82311 12 9.65354 12.0702 9.52851 12.1952C9.40349 12.3202 9.33325 12.4898 9.33325 12.6666Z" stroke="#2E2E2E" stroke-linecap="round" stroke-linejoin="round"/>
</svg>
