<svg width="16" height="16" viewBox="0 0 16 16" fill="none" xmlns="http://www.w3.org/2000/svg">
<path d="M5.33333 5.99996H10.6667M5.33333 8.66663H9.33333M6 12H4C3.46957 12 2.96086 11.7892 2.58579 11.4142C2.21071 11.0391 2 10.5304 2 9.99996V4.66663C2 4.13619 2.21071 3.62749 2.58579 3.25241C2.96086 2.87734 3.46957 2.66663 4 2.66663H12C12.5304 2.66663 13.0391 2.87734 13.4142 3.25241C13.7893 3.62749 14 4.13619 14 4.66663V9.99996C14 10.5304 13.7893 11.0391 13.4142 11.4142C13.0391 11.7892 12.5304 12 12 12H10L8 14L6 12Z" stroke="#121212" stroke-width="1.25" stroke-linecap="round" stroke-linejoin="round"/>
</svg>
