<svg width="14" height="14" viewBox="0 0 14 14" fill="none" xmlns="http://www.w3.org/2000/svg">
<path d="M4.08342 5.24996C3.85267 5.24996 3.62711 5.18154 3.43525 5.05334C3.24339 4.92515 3.09386 4.74294 3.00556 4.52976C2.91725 4.31658 2.89415 4.082 2.93917 3.85569C2.98418 3.62938 3.0953 3.4215 3.25846 3.25834C3.42162 3.09517 3.6295 2.98406 3.85581 2.93904C4.08212 2.89403 4.3167 2.91713 4.52988 3.00543C4.74306 3.09374 4.92527 3.24327 5.05346 3.43513C5.18166 3.62699 5.25008 3.85255 5.25008 4.08329V9.91663C5.25008 10.1474 5.18166 10.3729 5.05346 10.5648C4.92527 10.7567 4.74306 10.9062 4.52988 10.9945C4.3167 11.0828 4.08212 11.1059 3.85581 11.0609C3.6295 11.0159 3.42162 10.9047 3.25846 10.7416C3.0953 10.5784 2.98418 10.3705 2.93917 10.1442C2.89415 9.91792 2.91725 9.68334 3.00556 9.47016C3.09386 9.25698 3.24339 9.07477 3.43525 8.94658C3.62711 8.81838 3.85267 8.74996 4.08342 8.74996H9.91675C10.1475 8.74996 10.3731 8.81838 10.5649 8.94658C10.7568 9.07477 10.9063 9.25698 10.9946 9.47016C11.0829 9.68334 11.106 9.91792 11.061 10.1442C11.016 10.3705 10.9049 10.5784 10.7417 10.7416C10.5785 10.9047 10.3707 11.0159 10.1444 11.0609C9.91804 11.1059 9.68347 11.0828 9.47028 10.9945C9.2571 10.9062 9.0749 10.7567 8.9467 10.5648C8.81851 10.3729 8.75008 10.1474 8.75008 9.91663V4.08329C8.75008 3.85255 8.81851 3.62699 8.9467 3.43513C9.0749 3.24327 9.2571 3.09374 9.47028 3.00543C9.68347 2.91713 9.91804 2.89403 10.1444 2.93904C10.3707 2.98406 10.5785 3.09517 10.7417 3.25834C10.9049 3.4215 11.016 3.62938 11.061 3.85569C11.106 4.082 11.0829 4.31658 10.9946 4.52976C10.9063 4.74294 10.7568 4.92515 10.5649 5.05334C10.3731 5.18154 10.1475 5.24996 9.91675 5.24996H4.08342Z" stroke="#121212" stroke-linecap="round" stroke-linejoin="round"/>
</svg>
