<svg width="14" height="14" viewBox="0 0 14 14" fill="none" xmlns="http://www.w3.org/2000/svg">
<path d="M7.49992 4.05643e-05L7.49992 6.79171L9.66658 4.62504L10.8333 5.83337L6.66658 10L2.49992 5.83337L3.66658 4.62504L5.83325 6.79171L5.83325 4.071e-05L7.49992 4.05643e-05ZM13.3333 9.16671L13.3333 11.6667C13.3333 12.125 13.1701 12.5174 12.8437 12.8438C12.5173 13.1702 12.1249 13.3334 11.6666 13.3334L1.66658 13.3334C1.20825 13.3334 0.81589 13.1702 0.489501 12.8438C0.163112 12.5174 -8.21216e-05 12.125 -8.21617e-05 11.6667L-8.23803e-05 9.16671L1.66658 9.16671L1.66658 11.6667L11.6666 11.6667L11.6666 9.16671L13.3333 9.16671Z" fill="#1C1B1F"/>
</svg>
