<svg width="16" height="16" viewBox="0 0 16 16" fill="none" xmlns="http://www.w3.org/2000/svg">
<path d="M6 10L10 6M7.33333 4.00004L7.642 3.64271C8.2672 3.01759 9.11513 2.66644 9.99924 2.6665C10.8833 2.66657 11.7312 3.01784 12.3563 3.64304C12.9814 4.26824 13.3326 5.11617 13.3325 6.00028C13.3325 6.88439 12.9812 7.73226 12.356 8.35737L12 8.66671M8.6666 12L8.40193 12.356C7.76943 12.9815 6.91579 13.3323 6.02627 13.3323C5.13674 13.3323 4.2831 12.9815 3.6506 12.356C3.33884 12.0477 3.09133 11.6807 2.92241 11.2761C2.75348 10.8715 2.6665 10.4374 2.6665 9.999C2.6665 9.56057 2.75348 9.12649 2.92241 8.7219C3.09133 8.31732 3.33884 7.95027 3.6506 7.642L3.99993 7.33333" stroke="#CF7018" stroke-width="1.5" stroke-linecap="round" stroke-linejoin="round"/>
</svg>
