<svg width="14" height="14" viewBox="0 0 14 14" fill="none" xmlns="http://www.w3.org/2000/svg">
<path d="M11.6277 7.60723C11.5175 8.4472 11.1808 9.24134 10.6536 9.90449C10.1264 10.5676 9.42868 11.0748 8.63518 11.3715C7.84168 11.6682 6.98237 11.7433 6.14942 11.5888C5.31646 11.4343 4.54129 11.0559 3.90702 10.4943C3.27276 9.93272 2.80333 9.20905 2.54909 8.40094C2.29485 7.59282 2.26539 6.73074 2.46386 5.90715C2.66233 5.08356 3.08125 4.32953 3.67569 3.72593C4.27012 3.12233 5.01766 2.69193 5.83812 2.48089C8.11253 1.89756 10.4669 3.06831 11.336 5.24998M11.6667 2.33328V5.24995H8.75008" stroke="#121212" stroke-width="1.3125" stroke-linecap="round" stroke-linejoin="round"/>
</svg>
