<svg width="20" height="20" viewBox="0 0 20 20" fill="none" xmlns="http://www.w3.org/2000/svg">
<path d="M5.00004 9.99992C4.55801 9.99992 4.13409 9.82432 3.82153 9.51176C3.50897 9.1992 3.33337 8.77528 3.33337 8.33325C3.33337 7.89122 3.50897 7.4673 3.82153 7.15474C4.13409 6.84218 4.55801 6.66659 5.00004 6.66659M5.00004 9.99992C5.44207 9.99992 5.86599 9.82432 6.17855 9.51176C6.49111 9.1992 6.66671 8.77528 6.66671 8.33325C6.66671 7.89122 6.49111 7.4673 6.17855 7.15474C5.86599 6.84218 5.44207 6.66659 5.00004 6.66659M5.00004 9.99992V16.6666M5.00004 6.66659V3.33325M10 14.9999C9.55801 14.9999 9.13409 14.8243 8.82153 14.5118C8.50897 14.1992 8.33337 13.7753 8.33337 13.3333C8.33337 12.8912 8.50897 12.4673 8.82153 12.1547C9.13409 11.8422 9.55801 11.6666 10 11.6666M10 14.9999C10.4421 14.9999 10.866 14.8243 11.1786 14.5118C11.4911 14.1992 11.6667 13.7753 11.6667 13.3333C11.6667 12.8912 11.4911 12.4673 11.1786 12.1547C10.866 11.8422 10.4421 11.6666 10 11.6666M10 14.9999V16.6666M10 11.6666V3.33325M15 7.49992C14.558 7.49992 14.1341 7.32432 13.8215 7.01176C13.509 6.6992 13.3334 6.27528 13.3334 5.83325C13.3334 5.39122 13.509 4.9673 13.8215 4.65474C14.1341 4.34218 14.558 4.16659 15 4.16659M15 7.49992C15.4421 7.49992 15.866 7.32432 16.1786 7.01176C16.4911 6.6992 16.6667 6.27528 16.6667 5.83325C16.6667 5.39122 16.4911 4.9673 16.1786 4.65474C15.866 4.34218 15.4421 4.16659 15 4.16659M15 7.49992V16.6666M15 4.16659V3.33325" stroke="#2E2E2E" stroke-width="1.25" stroke-linecap="round" stroke-linejoin="round"/>
</svg>
