<svg width="173" height="67" viewBox="0 0 173 67" fill="none" xmlns="http://www.w3.org/2000/svg">
<path d="M-9.47117 105.043C-9.20825 105.046 -8.99736 105.261 -8.99874 105.524C-9.00011 105.787 -9.21315 106 -9.47609 106H-20.4644C-20.7602 106 -21.0002 105.76 -20.9989 105.464C-20.9976 105.168 -20.7553 104.931 -20.4595 104.934L-9.47117 105.043ZM190.999 105.464C191 105.76 190.76 106 190.464 106H179.476C179.213 106 179 105.787 178.999 105.524C178.997 105.261 179.208 105.046 179.471 105.043L190.459 104.934C190.755 104.931 190.998 105.168 190.999 105.464ZM-9.71715 99.3012C-9.19379 99.3376 -8.79953 99.7904 -8.83085 100.314C-8.86217 100.838 -9.30762 101.243 -9.83162 101.217L-19.7997 100.722C-20.3898 100.693 -20.845 100.19 -20.81 99.5997C-20.7749 99.0099 -20.2634 98.5665 -19.674 98.6076L-9.71715 99.3012ZM189.674 98.6076C190.263 98.5665 190.775 99.0099 190.81 99.5997C190.845 100.19 190.39 100.693 189.8 100.722L179.832 101.217C179.308 101.243 178.862 100.838 178.831 100.314C178.8 99.7904 179.194 99.3376 179.717 99.3012L189.674 98.6076ZM-9.14534 93.5922C-8.62605 93.6599 -8.26039 94.1349 -8.32299 94.6548C-8.38559 95.1747 -8.85362 95.5512 -9.37416 95.4939L-19.2971 94.402C-19.8838 94.3375 -20.3075 93.8086 -20.2372 93.2225C-20.1668 92.6365 -19.6301 92.225 -19.0448 92.3013L-9.14534 93.5922ZM189.045 92.3013C189.63 92.225 190.167 92.6365 190.237 93.2225C190.308 93.8086 189.884 94.3375 189.297 94.402L179.374 95.4939C178.854 95.5512 178.386 95.1747 178.323 94.6548C178.26 94.1349 178.626 93.6599 179.145 93.5922L189.045 92.3013ZM-8.22967 87.9324C-7.71666 88.0312 -7.38121 88.5264 -7.47478 89.0404C-7.56834 89.5544 -8.05708 89.901 -8.57199 89.8125L-18.4152 88.122C-18.996 88.0223 -19.3864 87.4697 -19.281 86.8898C-19.1757 86.31 -18.6158 85.9321 -18.0372 86.0436L-8.22967 87.9324ZM188.037 86.0436C188.616 85.9321 189.176 86.31 189.281 86.8898C189.386 87.4697 188.996 88.0223 188.415 88.122L178.572 89.8125C178.057 89.901 177.568 89.5544 177.475 89.0404C177.381 88.5264 177.717 88.0312 178.23 87.9324L188.037 86.0436ZM-6.97422 82.3407C-6.46908 82.4702 -6.16488 82.984 -6.28915 83.4904C-6.41343 83.9969 -6.9213 84.3125 -7.42895 84.1932L-17.1543 81.9078C-17.7271 81.7732 -18.0827 81.1989 -17.9426 80.6274C-17.8024 80.0559 -17.2216 79.7132 -16.6516 79.8593L-6.97422 82.3407ZM186.652 79.8593C187.222 79.7132 187.802 80.0559 187.943 80.6274C188.083 81.1989 187.727 81.7732 187.154 81.9078L177.429 84.1932C176.921 84.3125 176.413 83.9969 176.289 83.4904C176.165 82.984 176.469 82.4702 176.974 82.3407L186.652 79.8593ZM-5.38284 76.8307C-4.88554 76.9911 -4.61274 77.5236 -4.76809 78.0224C-4.92344 78.5214 -5.45063 78.8059 -5.9511 78.6557L-15.5149 75.7847C-16.08 75.6151 -16.4009 75.0187 -16.2257 74.4553C-16.0504 73.892 -15.4481 73.5843 -14.8866 73.7654L-5.38284 76.8307ZM184.887 73.7654C185.448 73.5843 186.05 73.892 186.226 74.4553C186.401 75.0187 186.08 75.6151 185.515 75.7847L175.951 78.6557C175.451 78.8059 174.923 78.5214 174.768 78.0224C174.613 77.5236 174.886 76.9911 175.383 76.8307L184.887 73.7654ZM-3.45842 71.4284C-2.97117 71.6189 -2.73095 72.1678 -2.91645 72.6571C-3.10194 73.1463 -3.6461 73.3985 -4.13711 73.2178L-13.5074 69.7705C-14.0615 69.5666 -14.3458 68.9515 -14.1362 68.3994C-13.9267 67.8474 -13.3062 67.5767 -12.7563 67.7918L-3.45842 71.4284ZM182.756 67.7918C183.306 67.5767 183.927 67.8474 184.136 68.3994C184.346 68.9515 184.062 69.5666 183.507 69.7705L174.137 73.2178C173.646 73.3985 173.102 73.1463 172.916 72.6571C172.731 72.1678 172.971 71.6189 173.458 71.4284L182.756 67.7918ZM-1.20755 66.1551C-0.733183 66.3747 -0.527025 66.9367 -0.742014 67.4132C-0.957001 67.8897 -1.51503 68.1081 -1.99374 67.8981L-11.1381 63.887C-11.6783 63.6501 -11.9245 63.0195 -11.682 62.4818C-11.4395 61.944 -10.8044 61.7117 -10.2691 61.9595L-1.20755 66.1551ZM180.269 61.9595C180.804 61.7117 181.44 61.944 181.682 62.4818C181.924 63.0195 181.678 63.6501 181.138 63.887L171.994 67.8981C171.515 68.1081 170.957 67.8897 170.742 67.4132C170.527 66.9367 170.733 66.3747 171.208 66.1551L180.269 61.9595ZM1.3588 61.0279C1.81863 61.2757 1.99018 61.8488 1.74687 62.311C1.50356 62.7732 0.933832 62.9571 0.469116 62.7187L-8.41685 58.1599C-8.94116 57.8909 -9.14847 57.2472 -8.87421 56.7257C-8.59997 56.2041 -7.95254 56.0108 -7.4338 56.2903L1.3588 61.0279ZM177.434 56.2903C177.953 56.0108 178.6 56.2041 178.874 56.7257C179.148 57.2472 178.941 57.8909 178.417 58.1599L169.531 62.7187C169.066 62.9571 168.496 62.7732 168.253 62.311C168.01 61.8488 168.181 61.2757 168.641 61.0279L177.434 56.2903ZM4.23049 56.0629C4.6749 56.3383 4.81157 56.9213 4.54049 57.3684C4.2694 57.8155 3.68899 57.9647 3.23908 57.6983L-5.35289 52.6104C-5.86022 52.3099 -6.02829 51.6546 -5.72274 51.1503C-5.41718 50.646 -4.75872 50.492 -4.25751 50.8027L4.23049 56.0629ZM174.258 50.8027C174.759 50.492 175.417 50.646 175.723 51.1503C176.028 51.6546 175.86 52.3099 175.353 52.6104L166.761 57.6983C166.311 57.9647 165.731 57.8155 165.46 57.3684C165.188 56.9213 165.325 56.3383 165.77 56.0629L174.258 50.8027ZM7.39755 51.2798C7.82466 51.5815 7.92595 52.172 7.6285 52.6021C7.33104 53.0323 6.74265 53.1462 6.30953 52.8531L-1.96022 47.2568C-2.44872 46.9262 -2.57707 46.2617 -2.2416 45.7766C-1.90614 45.2914 -1.23936 45.1773 -0.757641 45.5177L7.39755 51.2798ZM170.758 45.5177C171.239 45.1773 171.906 45.2914 172.242 45.7766C172.577 46.2617 172.449 46.9262 171.96 47.2568L163.69 52.8531C163.257 53.1462 162.669 53.0323 162.372 52.6021C162.074 52.172 162.175 51.5815 162.602 51.2798L170.758 45.5177ZM10.8477 46.6951C11.2559 47.0221 11.3215 47.6177 10.9987 48.0293C10.676 48.4408 10.0818 48.519 9.66707 48.2004L1.74875 42.1162C1.2813 41.757 1.19317 41.0864 1.55694 40.6225C1.92069 40.1587 2.59271 40.0848 3.05283 40.4533L10.8477 46.6951ZM166.947 40.4533C167.407 40.0848 168.079 40.1587 168.443 40.6225C168.807 41.0864 168.719 41.757 168.251 42.1162L160.333 48.2004C159.918 48.519 159.324 48.4408 159.001 48.0293C158.678 47.6177 158.744 47.0221 159.152 46.6951L166.947 40.4533ZM14.5666 42.3278C14.9543 42.6785 14.9839 43.2769 14.6371 43.6682C14.2904 44.0595 13.6927 44.1019 13.298 43.7589L5.75954 37.2086C5.3147 36.8221 5.26707 36.1478 5.65812 35.7069C6.04919 35.266 6.72442 35.2327 7.16145 35.6281L14.5666 42.3278ZM162.839 35.628C163.276 35.2327 163.951 35.266 164.342 35.7069C164.733 36.1478 164.685 36.8221 164.24 37.2086L156.702 43.7582C156.307 44.101 155.71 44.0587 155.363 43.6677C155.016 43.2767 155.046 42.6786 155.433 42.328L162.839 35.628ZM18.5424 38.1901C18.9084 38.5635 18.902 39.1626 18.5323 39.5323C18.1626 39.902 17.5635 39.9084 17.1901 39.5424L10.0578 32.5515C9.63702 32.139 9.62987 31.4632 10.0465 31.0465C10.4632 30.6299 11.139 30.637 11.5515 31.0578L18.5424 38.1901ZM158.449 31.0578C158.861 30.637 159.537 30.6299 159.953 31.0465C160.37 31.4632 160.363 32.139 159.942 32.5515L152.81 39.5424C152.436 39.9084 151.837 39.902 151.468 39.5323C151.098 39.1626 151.092 38.5635 151.458 38.1901L158.449 31.0578ZM22.7582 34.2983C23.101 34.6928 23.0587 35.2903 22.6677 35.6371C22.2767 35.984 21.6786 35.9544 21.328 35.5668L14.628 28.1614C14.2327 27.7244 14.266 27.0492 14.7069 26.6581C15.1478 26.2671 15.8221 26.3147 16.2086 26.7596L22.7582 34.2983ZM153.791 26.7595C154.178 26.3147 154.852 26.2671 155.293 26.6581C155.734 27.0492 155.767 27.7244 155.372 28.1614L148.672 35.5666C148.321 35.9543 147.723 35.9839 147.332 35.6371C146.94 35.2904 146.898 34.6927 147.241 34.298L153.791 26.7595ZM27.2004 30.6671C27.519 31.0818 27.4408 31.676 27.0293 31.9987C26.6177 32.3215 26.0221 32.2559 25.6951 31.8477L19.4533 24.0528C19.0848 23.5927 19.1587 22.9207 19.6225 22.5569C20.0864 22.1932 20.757 22.2813 21.1162 22.7488L27.2004 30.6671ZM148.884 22.7488C149.243 22.2813 149.914 22.1932 150.377 22.5569C150.841 22.9207 150.915 23.5927 150.547 24.0528L144.305 31.8477C143.978 32.2559 143.382 32.3215 142.971 31.9987C142.559 31.676 142.481 31.0818 142.8 30.6671L148.884 22.7488ZM31.8531 27.3095C32.1462 27.7426 32.0323 28.331 31.6021 28.6285C31.172 28.926 30.5815 28.8247 30.2798 28.3976L24.5177 20.2424C24.1773 19.7606 24.2914 19.0939 24.7766 18.7584C25.2617 18.4229 25.9262 18.5513 26.2568 19.0398L31.8531 27.3095ZM143.743 19.0398C144.074 18.5513 144.738 18.4229 145.223 18.7584C145.709 19.0939 145.823 19.7606 145.482 20.2424L139.72 28.3975C139.418 28.8247 138.828 28.926 138.398 28.6285C137.968 28.331 137.854 27.7427 138.147 27.3095L143.743 19.0398ZM36.6983 24.2391C36.9647 24.689 36.8155 25.2694 36.3684 25.5405C35.9213 25.8116 35.3383 25.6749 35.0629 25.2305L29.8027 16.7425C29.492 16.2413 29.646 15.5828 30.1503 15.2773C30.6546 14.9717 31.3099 15.1398 31.6104 15.6471L36.6983 24.2391ZM138.39 15.6471C138.69 15.1398 139.345 14.9717 139.85 15.2773C140.354 15.5828 140.508 16.2413 140.197 16.7425L134.937 25.2305C134.662 25.6749 134.079 25.8116 133.632 25.5405C133.184 25.2694 133.035 24.689 133.302 24.2391L138.39 15.6471ZM41.7187 21.4691C41.9571 21.9338 41.7732 22.5036 41.311 22.7469C40.8488 22.9902 40.2757 22.8186 40.0279 22.3588L35.2903 13.5662C35.0108 13.0475 35.2041 12.4 35.7257 12.1258C36.2472 11.8515 36.8909 12.0588 37.1599 12.5831L41.7187 21.4691ZM132.84 12.5831C133.109 12.0588 133.753 11.8515 134.274 12.1258C134.796 12.4 134.989 13.0475 134.71 13.5662L129.972 22.3588C129.724 22.8186 129.151 22.9902 128.689 22.7469C128.227 22.5036 128.043 21.9338 128.281 21.4691L132.84 12.5831ZM46.8981 19.0063C47.1081 19.485 46.8897 20.043 46.4132 20.258C45.9367 20.473 45.3747 20.2668 45.1551 19.7924L40.9595 10.7309C40.7117 10.1956 40.944 9.56046 41.4818 9.318C42.0195 9.07555 42.6501 9.32169 42.887 9.86187L46.8981 19.0063ZM127.113 9.86187C127.35 9.32169 127.981 9.07555 128.518 9.318C129.056 9.56046 129.288 10.1956 129.041 10.7309L124.845 19.7924C124.625 20.2668 124.063 20.473 123.587 20.258C123.11 20.043 122.892 19.485 123.102 19.0063L127.113 9.86187ZM52.2178 16.8629C52.3985 17.3539 52.1463 17.8981 51.6571 18.0836C51.1678 18.2691 50.6189 18.0288 50.4284 17.5416L46.7918 8.24371C46.5767 7.69382 46.8474 7.07333 47.3994 6.86376C47.9515 6.6542 48.5666 6.93848 48.7705 7.49262L52.2178 16.8629ZM121.229 7.49262C121.433 6.93848 122.049 6.6542 122.601 6.86376C123.153 7.07333 123.423 7.69382 123.208 8.24371L119.572 17.5416C119.381 18.0288 118.832 18.2691 118.343 18.0836C117.854 17.8981 117.602 17.3539 117.782 16.8629L121.229 7.49262ZM57.6557 15.0489C57.8059 15.5494 57.5214 16.0766 57.0224 16.2319C56.5236 16.3873 55.9911 16.1145 55.8307 15.6172L52.7654 6.1134C52.5843 5.55189 52.892 4.94955 53.4553 4.7743C54.0187 4.59905 54.6151 4.91999 54.7847 5.48506L57.6557 15.0489ZM115.215 5.48506C115.385 4.92 115.981 4.59905 116.545 4.7743C117.108 4.94955 117.416 5.55189 117.235 6.1134L114.169 15.6172C114.009 16.1145 113.476 16.3873 112.978 16.2319C112.479 16.0766 112.194 15.5494 112.344 15.0489L115.215 5.48506ZM63.1932 13.571C63.3125 14.0787 62.9969 14.5866 62.4904 14.7108C61.984 14.8351 61.4702 14.5309 61.3407 14.0258L58.8593 4.3484C58.7132 3.77844 59.0559 3.1976 59.6274 3.05744C60.1989 2.91728 60.7732 3.27294 60.9078 3.84574L63.1932 13.571ZM109.092 3.84574C109.227 3.27294 109.801 2.91728 110.373 3.05744C110.944 3.1976 111.287 3.77844 111.141 4.3484L108.659 14.0258C108.53 14.5309 108.016 14.8351 107.51 14.7108C107.003 14.5866 106.688 14.0787 106.807 13.571L109.092 3.84574ZM68.8125 12.428C68.901 12.9429 68.5544 13.4317 68.0404 13.5252C67.5264 13.6188 67.0312 13.2833 66.9324 12.7703L65.0436 2.96284C64.9321 2.38416 65.31 1.82434 65.8898 1.71896C66.4697 1.61359 67.0223 2.00403 67.122 2.58483L68.8125 12.428ZM102.878 2.58483C102.978 2.00403 103.53 1.61359 104.11 1.71896C104.69 1.82434 105.068 2.38416 104.956 2.96284L103.068 12.7703C102.969 13.2833 102.474 13.6188 101.96 13.5252C101.446 13.4317 101.099 12.9429 101.187 12.428L102.878 2.58483ZM74.4939 11.6258C74.5512 12.1464 74.1747 12.6144 73.6548 12.677C73.1349 12.7396 72.6599 12.3739 72.5922 11.8547L71.3013 1.95521C71.225 1.36995 71.6365 0.833199 72.2225 0.762838C72.8086 0.692477 73.3375 1.11622 73.402 1.7029L74.4939 11.6258ZM96.598 1.7029C96.6625 1.11622 97.1914 0.692477 97.7775 0.762838C98.3635 0.833199 98.775 1.36995 98.6987 1.95521L97.4078 11.8547C97.3401 12.3739 96.8651 12.7396 96.3452 12.677C95.8253 12.6144 95.4488 12.1464 95.5061 11.6258L96.598 1.7029ZM80.2166 11.1684C80.2426 11.6924 79.8378 12.1378 79.3141 12.1692C78.7904 12.2005 78.3376 11.8062 78.3012 11.2828L77.6076 1.32601C77.5665 0.736602 78.0099 0.225051 78.5997 0.190035C79.1895 0.155021 79.6927 0.61018 79.722 1.20026L80.2166 11.1684ZM90.278 1.20026C90.3073 0.610181 90.8105 0.155021 91.4003 0.190035C91.9901 0.225051 92.4335 0.736603 92.3924 1.32601L91.6988 11.2828C91.6624 11.8062 91.2096 12.2005 90.6859 12.1692C90.1622 12.1378 89.7574 11.6924 89.7834 11.1684L90.278 1.20026ZM85 0C85.5917 0 86.0665 0.484502 86.0607 1.07613L85.9616 11.0528C85.9564 11.5786 85.5259 12 85 12C84.4741 12 84.0436 11.5786 84.0384 11.0528L83.9393 1.07614C83.9335 0.484502 84.4083 0 85 0Z" fill="#E4E4E4"/>
</svg>
