<svg width="16" height="16" viewBox="0 0 16 16" fill="none" xmlns="http://www.w3.org/2000/svg">
<path d="M6.00002 11.3333V12C6.00002 12.5304 6.21073 13.0391 6.58581 13.4142C6.96088 13.7893 7.46959 14 8.00002 14C8.53045 14 9.03916 13.7893 9.41423 13.4142C9.78931 13.0391 10 12.5304 10 12V11.3333M6.66669 3.33333C6.66669 2.97971 6.80716 2.64057 7.05721 2.39052C7.30726 2.14048 7.6464 2 8.00002 2C8.35364 2 8.69278 2.14048 8.94283 2.39052C9.19288 2.64057 9.33335 2.97971 9.33335 3.33333C10.099 3.69535 10.7516 4.25888 11.2214 4.96353C11.6912 5.66818 11.9603 6.48738 12 7.33333V9.33333C12.0502 9.7478 12.197 10.1447 12.4286 10.4921C12.6601 10.8395 12.9701 11.1276 13.3334 11.3333H2.66669C3.02998 11.1276 3.33989 10.8395 3.57148 10.4921C3.80306 10.1447 3.94985 9.7478 4.00002 9.33333V7.33333C4.03973 6.48738 4.30889 5.66818 4.77865 4.96353C5.24842 4.25888 5.90108 3.69535 6.66669 3.33333Z" stroke="#121212" stroke-width="1.25" stroke-linecap="round" stroke-linejoin="round"/>
</svg>
