<svg width="154" height="20" viewBox="0 0 154 20" fill="none" xmlns="http://www.w3.org/2000/svg">
<path d="M-20.5 0C-20.2239 0 -20 0.223858 -20 0.5L-20 19.5C-20 19.7761 -20.2239 20 -20.5 20C-20.7761 20 -21 19.7761 -21 19.5L-21 0.5C-21 0.223857 -20.7761 0 -20.5 0ZM-15 0C-14.4477 0 -14 0.447715 -14 1L-14 19C-14 19.5523 -14.4477 20 -15 20C-15.5523 20 -16 19.5523 -16 19L-16 1C-16 0.447715 -15.5523 0 -15 0ZM-9 0C-8.44771 0 -8 0.447715 -8 1L-8 19C-8 19.5523 -8.44771 20 -9 20C-9.55229 20 -10 19.5523 -10 19L-10 1C-10 0.447715 -9.55229 0 -9 0ZM-3 0C-2.44772 0 -2 0.447715 -2 1L-2 19C-2 19.5523 -2.44772 20 -3 20C-3.55228 20 -4 19.5523 -4 19L-4 1C-4 0.447715 -3.55228 0 -3 0ZM3 0C3.55228 0 4 0.447715 4 1L4 19C4 19.5523 3.55228 20 3 20C2.44772 20 2 19.5523 2 19L2 1C2 0.447715 2.44772 0 3 0ZM9 0C9.55228 0 10 0.447715 10 1L10 19C10 19.5523 9.55228 20 9 20C8.44772 20 8 19.5523 8 19L8 1C8 0.447715 8.44772 0 9 0ZM15 0C15.5523 0 16 0.447715 16 1L16 19C16 19.5523 15.5523 20 15 20C14.4477 20 14 19.5523 14 19L14 1C14 0.447715 14.4477 0 15 0ZM21 0C21.5523 0 22 0.447715 22 1L22 19C22 19.5523 21.5523 20 21 20C20.4477 20 20 19.5523 20 19L20 1C20 0.447715 20.4477 0 21 0ZM27 0C27.5523 0 28 0.447715 28 1L28 19C28 19.5523 27.5523 20 27 20C26.4477 20 26 19.5523 26 19L26 1C26 0.447715 26.4477 0 27 0ZM33 0C33.5523 0 34 0.447715 34 1L34 19C34 19.5523 33.5523 20 33 20C32.4477 20 32 19.5523 32 19L32 1C32 0.447715 32.4477 0 33 0ZM39 0C39.5523 0 40 0.447715 40 1L40 19C40 19.5523 39.5523 20 39 20C38.4477 20 38 19.5523 38 19L38 1C38 0.447715 38.4477 0 39 0ZM45 0C45.5523 0 46 0.447715 46 1V19C46 19.5523 45.5523 20 45 20C44.4477 20 44 19.5523 44 19V1C44 0.447715 44.4477 0 45 0ZM51 0C51.5523 0 52 0.447715 52 1V19C52 19.5523 51.5523 20 51 20C50.4477 20 50 19.5523 50 19V1C50 0.447715 50.4477 0 51 0ZM57 0C57.5523 0 58 0.447715 58 1V19C58 19.5523 57.5523 20 57 20C56.4477 20 56 19.5523 56 19V1C56 0.447715 56.4477 0 57 0ZM63 0C63.5523 0 64 0.447715 64 1V19C64 19.5523 63.5523 20 63 20C62.4477 20 62 19.5523 62 19V1C62 0.447715 62.4477 0 63 0ZM69 0C69.5523 0 70 0.447715 70 1V19C70 19.5523 69.5523 20 69 20C68.4477 20 68 19.5523 68 19V1C68 0.447715 68.4477 0 69 0ZM75 0C75.5523 0 76 0.447715 76 1V19C76 19.5523 75.5523 20 75 20C74.4477 20 74 19.5523 74 19V1C74 0.447715 74.4477 0 75 0ZM81 0C81.5523 0 82 0.447715 82 1V19C82 19.5523 81.5523 20 81 20C80.4477 20 80 19.5523 80 19V1C80 0.447715 80.4477 0 81 0ZM87 0C87.5523 0 88 0.447715 88 1V19C88 19.5523 87.5523 20 87 20C86.4477 20 86 19.5523 86 19V1C86 0.447715 86.4477 0 87 0ZM93 0C93.5523 0 94 0.447715 94 1V19C94 19.5523 93.5523 20 93 20C92.4477 20 92 19.5523 92 19V1C92 0.447715 92.4477 0 93 0ZM99 0C99.5523 0 100 0.447715 100 1V19C100 19.5523 99.5523 20 99 20C98.4477 20 98 19.5523 98 19V1C98 0.447715 98.4477 0 99 0ZM105 0C105.552 0 106 0.447715 106 1V19C106 19.5523 105.552 20 105 20C104.448 20 104 19.5523 104 19V1C104 0.447715 104.448 0 105 0ZM123 0C123.552 0 124 0.447715 124 1V19C124 19.5523 123.552 20 123 20C122.448 20 122 19.5523 122 19V1C122 0.447715 122.448 0 123 0ZM129 0C129.552 0 130 0.447715 130 1V19C130 19.5523 129.552 20 129 20C128.448 20 128 19.5523 128 19V1C128 0.447715 128.448 0 129 0ZM135 0C135.552 0 136 0.447715 136 1V19C136 19.5523 135.552 20 135 20C134.448 20 134 19.5523 134 19V1C134 0.447715 134.448 0 135 0ZM141 0C141.552 0 142 0.447715 142 1V19C142 19.5523 141.552 20 141 20C140.448 20 140 19.5523 140 19V1C140 0.447715 140.448 0 141 0ZM147 0C147.552 0 148 0.447715 148 1V19C148 19.5523 147.552 20 147 20C146.448 20 146 19.5523 146 19V1C146 0.447715 146.448 0 147 0ZM153 0C153.552 0 154 0.447715 154 1V19C154 19.5523 153.552 20 153 20C152.448 20 152 19.5523 152 19V1C152 0.447715 152.448 0 153 0Z" fill="#E4E4E4"/>
</svg>
