<svg width="16" height="16" viewBox="0 0 16 16" fill="none" xmlns="http://www.w3.org/2000/svg">
<path d="M2.66669 4C2.66669 4.53043 3.22859 5.03914 4.22878 5.41421C5.22898 5.78929 6.58553 6 8.00002 6C9.41451 6 10.7711 5.78929 11.7713 5.41421C12.7715 5.03914 13.3334 4.53043 13.3334 4M2.66669 4C2.66669 3.46957 3.22859 2.96086 4.22878 2.58579C5.22898 2.21071 6.58553 2 8.00002 2C9.41451 2 10.7711 2.21071 11.7713 2.58579C12.7715 2.96086 13.3334 3.46957 13.3334 4M2.66669 4V8M13.3334 4V8M2.66669 8C2.66669 8.53043 3.22859 9.03914 4.22878 9.41421C5.22898 9.78929 6.58553 10 8.00002 10C9.41451 10 10.7711 9.78929 11.7713 9.41421C12.7715 9.03914 13.3334 8.53043 13.3334 8M2.66669 8V12C2.66669 12.5304 3.22859 13.0391 4.22878 13.4142C5.22898 13.7893 6.58553 14 8.00002 14C9.41451 14 10.7711 13.7893 11.7713 13.4142C12.7715 13.0391 13.3334 12.5304 13.3334 12V8" stroke="#D36E8B" stroke-width="1.5" stroke-linecap="round" stroke-linejoin="round"/>
</svg>
