<svg width="14" height="14" viewBox="0 0 14 14" fill="none" xmlns="http://www.w3.org/2000/svg">
<path d="M11.6276 7.60723C11.5175 8.4472 11.1808 9.24134 10.6536 9.90449C10.1264 10.5676 9.42862 11.0748 8.63512 11.3715C7.84162 11.6682 6.98231 11.7433 6.14936 11.5888C5.3164 11.4343 4.54123 11.0559 3.90696 10.4943C3.2727 9.93272 2.80327 9.20905 2.54903 8.40094C2.29479 7.59282 2.26533 6.73074 2.4638 5.90715C2.66227 5.08356 3.08119 4.32953 3.67562 3.72593C4.27006 3.12233 5.0176 2.69193 5.83806 2.48089C8.11247 1.89756 10.4668 3.06831 11.336 5.24998M11.6667 2.33328V5.24995H8.75002" stroke="#121212" stroke-width="1.3125" stroke-linecap="round" stroke-linejoin="round"/>
</svg>
