<svg width="20" height="20" viewBox="0 0 20 20" fill="none" xmlns="http://www.w3.org/2000/svg">
<path d="M7.50004 3.33337V16.6667M12.5 8.33337L10.8334 10L12.5 11.6667M3.33337 5.00004C3.33337 4.55801 3.50897 4.13409 3.82153 3.82153C4.13409 3.50897 4.55801 3.33337 5.00004 3.33337H15C15.4421 3.33337 15.866 3.50897 16.1786 3.82153C16.4911 4.13409 16.6667 4.55801 16.6667 5.00004V15C16.6667 15.4421 16.4911 15.866 16.1786 16.1786C15.866 16.4911 15.4421 16.6667 15 16.6667H5.00004C4.55801 16.6667 4.13409 16.4911 3.82153 16.1786C3.50897 15.866 3.33337 15.4421 3.33337 15V5.00004Z" stroke="#4C4C4C" stroke-width="1.25" stroke-linecap="round" stroke-linejoin="round"/>
</svg>
