<svg width="20" height="20" viewBox="0 0 20 20" fill="none" xmlns="http://www.w3.org/2000/svg">
<path d="M13.3334 12.5C11.4917 13.6108 8.50671 13.6108 6.66671 12.5M15.8334 7.2583L11.3892 3.80164C10.9992 3.49823 10.5192 3.3335 10.0251 3.3335C9.53094 3.3335 9.05091 3.49823 8.6609 3.80164L4.2159 7.2583C3.94877 7.46604 3.73264 7.73208 3.58403 8.03609C3.43541 8.34011 3.35824 8.67407 3.3584 9.01247V15.0125C3.3584 15.4545 3.53399 15.8784 3.84655 16.191C4.15911 16.5035 4.58304 16.6791 5.02507 16.6791H15.0251C15.4671 16.6791 15.891 16.5035 16.2036 16.191C16.5161 15.8784 16.6917 15.4545 16.6917 15.0125V9.01247C16.6917 8.32664 16.3751 7.67914 15.8334 7.2583Z" stroke="#121212" stroke-width="1.5" stroke-linecap="round" stroke-linejoin="round"/>
</svg>
