<svg width="14" height="14" viewBox="0 0 14 14" fill="none" xmlns="http://www.w3.org/2000/svg">
<path d="M4.08329 5.24996C3.85255 5.24996 3.62699 5.18154 3.43513 5.05334C3.24327 4.92515 3.09374 4.74294 3.00543 4.52976C2.91713 4.31658 2.89403 4.082 2.93904 3.85569C2.98406 3.62938 3.09517 3.4215 3.25834 3.25834C3.4215 3.09517 3.62938 2.98406 3.85569 2.93904C4.082 2.89403 4.31658 2.91713 4.52976 3.00543C4.74294 3.09374 4.92515 3.24327 5.05334 3.43513C5.18154 3.62699 5.24996 3.85255 5.24996 4.08329V9.91663C5.24996 10.1474 5.18154 10.3729 5.05334 10.5648C4.92515 10.7567 4.74294 10.9062 4.52976 10.9945C4.31658 11.0828 4.082 11.1059 3.85569 11.0609C3.62938 11.0159 3.4215 10.9047 3.25834 10.7416C3.09517 10.5784 2.98406 10.3705 2.93904 10.1442C2.89403 9.91792 2.91713 9.68334 3.00543 9.47016C3.09374 9.25698 3.24327 9.07477 3.43513 8.94658C3.62699 8.81838 3.85255 8.74996 4.08329 8.74996H9.91663C10.1474 8.74996 10.3729 8.81838 10.5648 8.94658C10.7567 9.07477 10.9062 9.25698 10.9945 9.47016C11.0828 9.68334 11.1059 9.91792 11.0609 10.1442C11.0159 10.3705 10.9047 10.5784 10.7416 10.7416C10.5784 10.9047 10.3705 11.0159 10.1442 11.0609C9.91792 11.1059 9.68334 11.0828 9.47016 10.9945C9.25698 10.9062 9.07477 10.7567 8.94658 10.5648C8.81838 10.3729 8.74996 10.1474 8.74996 9.91663V4.08329C8.74996 3.85255 8.81838 3.62699 8.94658 3.43513C9.07477 3.24327 9.25698 3.09374 9.47016 3.00543C9.68334 2.91713 9.91792 2.89403 10.1442 2.93904C10.3705 2.98406 10.5784 3.09517 10.7416 3.25834C10.9047 3.4215 11.0159 3.62938 11.0609 3.85569C11.1059 4.082 11.0828 4.31658 10.9945 4.52976C10.9062 4.74294 10.7567 4.92515 10.5648 5.05334C10.3729 5.18154 10.1474 5.24996 9.91663 5.24996H4.08329Z" stroke="#121212" stroke-linecap="round" stroke-linejoin="round"/>
</svg>
