<svg width="20" height="20" viewBox="0 0 20 20" fill="none" xmlns="http://www.w3.org/2000/svg">
<path d="M7.5 12.5L12.5 7.5M9.16667 5.00005L9.5525 4.55338C10.334 3.77199 11.3939 3.33305 12.499 3.33313C13.6042 3.33321 14.664 3.7723 15.4454 4.5538C16.2268 5.33531 16.6658 6.39521 16.6657 7.50035C16.6656 8.60548 16.2265 9.66532 15.445 10.4467L15 10.8334M10.8332 15L10.5024 15.445C9.71179 16.2268 8.64474 16.6653 7.53283 16.6653C6.42092 16.6653 5.35387 16.2268 4.56325 15.445C4.17355 15.0597 3.86416 14.6009 3.65301 14.0951C3.44185 13.5894 3.33313 13.0468 3.33313 12.4988C3.33313 11.9507 3.44185 11.4081 3.65301 10.9024C3.86416 10.3967 4.17355 9.93783 4.56325 9.5525L4.99991 9.16667" stroke="#2E2E2E" stroke-width="1.25" stroke-linecap="round" stroke-linejoin="round"/>
</svg>
