<svg width="20" height="20" viewBox="0 0 20 20" fill="none" xmlns="http://www.w3.org/2000/svg">
<path d="M3.33337 5C3.33337 5.66304 4.03575 6.29893 5.286 6.76777C6.53624 7.23661 8.23193 7.5 10 7.5C11.7682 7.5 13.4638 7.23661 14.7141 6.76777C15.9643 6.29893 16.6667 5.66304 16.6667 5M3.33337 5C3.33337 4.33696 4.03575 3.70107 5.286 3.23223C6.53624 2.76339 8.23193 2.5 10 2.5C11.7682 2.5 13.4638 2.76339 14.7141 3.23223C15.9643 3.70107 16.6667 4.33696 16.6667 5M3.33337 5V10M16.6667 5V10M3.33337 10C3.33337 10.663 4.03575 11.2989 5.286 11.7678C6.53624 12.2366 8.23193 12.5 10 12.5C11.7682 12.5 13.4638 12.2366 14.7141 11.7678C15.9643 11.2989 16.6667 10.663 16.6667 10M3.33337 10V15C3.33337 15.663 4.03575 16.2989 5.286 16.7678C6.53624 17.2366 8.23193 17.5 10 17.5C11.7682 17.5 13.4638 17.2366 14.7141 16.7678C15.9643 16.2989 16.6667 15.663 16.6667 15V10" stroke="#2E2E2E" stroke-width="1.25" stroke-linecap="round" stroke-linejoin="round"/>
</svg>
