<svg width="15" height="15" viewBox="0 0 15 15" fill="none" xmlns="http://www.w3.org/2000/svg">
<path d="M4.79167 0.625V13.9583M9.79167 5.625L8.125 7.29167L9.79167 8.95833M0.625 2.29167C0.625 1.84964 0.800595 1.42572 1.11316 1.11316C1.42572 0.800595 1.84964 0.625 2.29167 0.625H12.2917C12.7337 0.625 13.1576 0.800595 13.4702 1.11316C13.7827 1.42572 13.9583 1.84964 13.9583 2.29167V12.2917C13.9583 12.7337 13.7827 13.1576 13.4702 13.4702C13.1576 13.7827 12.7337 13.9583 12.2917 13.9583H2.29167C1.84964 13.9583 1.42572 13.7827 1.11316 13.4702C0.800595 13.1576 0.625 12.7337 0.625 12.2917V2.29167Z" stroke="#4C4C4C" stroke-width="1.25" stroke-linecap="round" stroke-linejoin="round"/>
</svg>
