<svg width="11" height="11" viewBox="0 0 11 11" fill="none" xmlns="http://www.w3.org/2000/svg">
<path d="M9.94997 5.93169C9.83981 6.77166 9.50309 7.56581 8.9759 8.22895C8.44871 8.8921 7.75095 9.39923 6.95744 9.69595C6.16394 9.99268 5.30464 10.0678 4.47168 9.91328C3.63873 9.75875 2.86355 9.38039 2.22929 8.81879C1.59502 8.25718 1.1256 7.53352 0.871358 6.7254C0.617117 5.91728 0.587652 5.0552 0.786123 4.23161C0.984593 3.40802 1.40351 2.654 1.99795 2.0504C2.59239 1.4468 3.33992 1.0164 4.16038 0.805355C6.4348 0.222021 8.78913 1.39277 9.6583 3.57444M9.98901 0.657745V3.57441H7.07235" stroke="#121212" stroke-width="1.3125" stroke-linecap="round" stroke-linejoin="round"/>
</svg>
