<svg width="17" height="17" viewBox="0 0 17 17" fill="none" xmlns="http://www.w3.org/2000/svg">
<path d="M3.125 10.625V9.79167C3.125 9.34964 3.30059 8.92572 3.61316 8.61316C3.92572 8.3006 4.34964 8.125 4.79167 8.125H11.4583C11.9004 8.125 12.3243 8.3006 12.6368 8.61316C12.9494 8.92572 13.125 9.34964 13.125 9.79167V10.625M8.125 5.625V8.125M0.625 12.2917C0.625 11.8496 0.800595 11.4257 1.11316 11.1132C1.42572 10.8006 1.84964 10.625 2.29167 10.625H3.95833C4.40036 10.625 4.82428 10.8006 5.13684 11.1132C5.44941 11.4257 5.625 11.8496 5.625 12.2917V13.9583C5.625 14.4004 5.44941 14.8243 5.13684 15.1368C4.82428 15.4494 4.40036 15.625 3.95833 15.625H2.29167C1.84964 15.625 1.42572 15.4494 1.11316 15.1368C0.800595 14.8243 0.625 14.4004 0.625 13.9583V12.2917ZM10.625 12.2917C10.625 11.8496 10.8006 11.4257 11.1132 11.1132C11.4257 10.8006 11.8496 10.625 12.2917 10.625H13.9583C14.4004 10.625 14.8243 10.8006 15.1368 11.1132C15.4494 11.4257 15.625 11.8496 15.625 12.2917V13.9583C15.625 14.4004 15.4494 14.8243 15.1368 15.1368C14.8243 15.4494 14.4004 15.625 13.9583 15.625H12.2917C11.8496 15.625 11.4257 15.4494 11.1132 15.1368C10.8006 14.8243 10.625 14.4004 10.625 13.9583V12.2917ZM5.625 2.29167C5.625 1.84964 5.8006 1.42572 6.11316 1.11316C6.42572 0.800595 6.84964 0.625 7.29167 0.625H8.95833C9.40036 0.625 9.82428 0.800595 10.1368 1.11316C10.4494 1.42572 10.625 1.84964 10.625 2.29167V3.95833C10.625 4.40036 10.4494 4.82428 10.1368 5.13684C9.82428 5.44941 9.40036 5.625 8.95833 5.625H7.29167C6.84964 5.625 6.42572 5.44941 6.11316 5.13684C5.8006 4.82428 5.625 4.40036 5.625 3.95833V2.29167Z" stroke="#2E2E2E" stroke-width="1.25" stroke-linecap="round" stroke-linejoin="round"/>
</svg>
