<svg width="17" height="17" viewBox="0 0 17 17" fill="none" xmlns="http://www.w3.org/2000/svg">
<path d="M8.125 11.4583V11.4667M8.125 8.95834C8.49979 8.95947 8.86402 8.83423 9.15888 8.60287C9.45373 8.3715 9.662 8.0475 9.75004 7.68319C9.83808 7.31889 9.80076 6.93554 9.64411 6.59506C9.48745 6.25457 9.22061 5.97683 8.88667 5.80667C8.55515 5.63685 8.17592 5.58419 7.81067 5.65727C7.44543 5.73035 7.11566 5.92487 6.875 6.20917M0.625 8.125C0.625 9.10991 0.818993 10.0852 1.1959 10.9951C1.57281 11.9051 2.12526 12.7319 2.8217 13.4283C3.51814 14.1247 4.34493 14.6772 5.25487 15.0541C6.16482 15.431 7.14009 15.625 8.125 15.625C9.10991 15.625 10.0852 15.431 10.9951 15.0541C11.9051 14.6772 12.7319 14.1247 13.4283 13.4283C14.1247 12.7319 14.6772 11.9051 15.0541 10.9951C15.431 10.0852 15.625 9.10991 15.625 8.125C15.625 6.13588 14.8348 4.22822 13.4283 2.8217C12.0218 1.41518 10.1141 0.625 8.125 0.625C6.13588 0.625 4.22822 1.41518 2.8217 2.8217C1.41518 4.22822 0.625 6.13588 0.625 8.125Z" stroke="#2E2E2E" stroke-width="1.25" stroke-linecap="round" stroke-linejoin="round"/>
</svg>
