<svg width="13" height="13" viewBox="0 0 13 13" fill="none" xmlns="http://www.w3.org/2000/svg">
<path d="M4.0835 8.0835L8.0835 4.0835M5.41683 2.08354L5.7255 1.7262C6.3507 1.10109 7.19862 0.749937 8.08273 0.75C8.96684 0.750063 9.81471 1.10133 10.4398 1.72654C11.0649 2.35174 11.4161 3.19966 11.416 4.08377C11.416 4.96788 11.0647 5.81576 10.4395 6.44087L10.0835 6.7502M6.75009 10.0835L6.48543 10.4395C5.85293 11.065 4.99929 11.4157 4.10976 11.4157C3.22024 11.4157 2.3666 11.065 1.73409 10.4395C1.42233 10.1312 1.17482 9.76418 1.0059 9.35959C0.83698 8.95501 0.75 8.52093 0.75 8.0825C0.75 7.64406 0.83698 7.20999 1.0059 6.8054C1.17482 6.40082 1.42233 6.03376 1.73409 5.7255L2.08343 5.41683" stroke="#CF7018" stroke-width="1.5" stroke-linecap="round" stroke-linejoin="round"/>
</svg>
