<svg width="13" height="14" viewBox="0 0 13 14" fill="none" xmlns="http://www.w3.org/2000/svg">
<path d="M0.75 2.75C0.75 3.28043 1.3119 3.78914 2.3121 4.16421C3.31229 4.53929 4.66885 4.75 6.08333 4.75C7.49782 4.75 8.85438 4.53929 9.85457 4.16421C10.8548 3.78914 11.4167 3.28043 11.4167 2.75M0.75 2.75C0.75 2.21957 1.3119 1.71086 2.3121 1.33579C3.31229 0.960714 4.66885 0.75 6.08333 0.75C7.49782 0.75 8.85438 0.960714 9.85457 1.33579C10.8548 1.71086 11.4167 2.21957 11.4167 2.75M0.75 2.75V6.75M11.4167 2.75V6.75M0.75 6.75C0.75 7.28043 1.3119 7.78914 2.3121 8.16421C3.31229 8.53929 4.66885 8.75 6.08333 8.75C7.49782 8.75 8.85438 8.53929 9.85457 8.16421C10.8548 7.78914 11.4167 7.28043 11.4167 6.75M0.75 6.75V10.75C0.75 11.2804 1.3119 11.7891 2.3121 12.1642C3.31229 12.5393 4.66885 12.75 6.08333 12.75C7.49782 12.75 8.85438 12.5393 9.85457 12.1642C10.8548 11.7891 11.4167 11.2804 11.4167 10.75V6.75" stroke="#D36E8B" stroke-width="1.5" stroke-linecap="round" stroke-linejoin="round"/>
</svg>
