<svg width="17" height="17" viewBox="0 0 17 17" fill="none" xmlns="http://www.w3.org/2000/svg">
<path d="M0.625 15.625L2.70833 13.5417M13.5417 2.70833L15.625 0.625M6.45833 7.29167L4.79167 8.95833M8.95833 9.79167L7.29167 11.4583M3.95828 8.125L8.12495 12.2917L6.87495 13.5417C6.603 13.8226 6.27787 14.0466 5.91849 14.2006C5.55911 14.3546 5.17268 14.4356 4.7817 14.4387C4.39073 14.4419 4.00303 14.3672 3.6412 14.2191C3.27937 14.0709 2.95065 13.8522 2.67418 13.5758C2.39771 13.2993 2.17902 12.9706 2.03086 12.6087C1.88271 12.2469 1.80804 11.8592 1.81121 11.4682C1.81439 11.0773 1.89534 10.6908 2.04935 10.3315C2.20336 9.97208 2.42736 9.64694 2.70828 9.375L3.95828 8.125ZM12.2917 8.125L8.125 3.95833L9.375 2.70833C9.64694 2.42741 9.97208 2.20341 10.3315 2.0494C10.6908 1.89539 11.0773 1.81444 11.4682 1.81126C11.8592 1.80809 12.2469 1.88276 12.6087 2.03091C12.9706 2.17907 13.2993 2.39776 13.5758 2.67423C13.8522 2.9507 14.0709 3.27942 14.2191 3.64125C14.3672 4.00308 14.4419 4.39078 14.4387 4.78176C14.4356 5.17273 14.3546 5.55916 14.2006 5.91854C14.0466 6.27792 13.8226 6.60305 13.5417 6.875L12.2917 8.125Z" stroke="#2E2E2E" stroke-width="1.25" stroke-linecap="round" stroke-linejoin="round"/>
</svg>
