<svg width="14" height="13" viewBox="0 0 14 13" fill="none" xmlns="http://www.w3.org/2000/svg">
<path d="M3.95833 3.95833H9.29167M3.95833 6.625H7.95833M4.625 9.95833H2.625C2.09457 9.95833 1.58586 9.74762 1.21079 9.37255C0.835714 8.99747 0.625 8.48877 0.625 7.95833V2.625C0.625 2.09457 0.835714 1.58586 1.21079 1.21079C1.58586 0.835714 2.09457 0.625 2.625 0.625H10.625C11.1554 0.625 11.6641 0.835714 12.0392 1.21079C12.4143 1.58586 12.625 2.09457 12.625 2.625V7.95833C12.625 8.48877 12.4143 8.99747 12.0392 9.37255C11.6641 9.74762 11.1554 9.95833 10.625 9.95833H8.625L6.625 11.9583L4.625 9.95833Z" stroke="#121212" stroke-width="1.25" stroke-linecap="round" stroke-linejoin="round"/>
</svg>
