<svg width="12" height="14" viewBox="0 0 12 14" fill="none" xmlns="http://www.w3.org/2000/svg">
<path d="M3.95833 9.95833V10.625C3.95833 11.1554 4.16905 11.6641 4.54412 12.0392C4.91919 12.4143 5.4279 12.625 5.95833 12.625C6.48877 12.625 6.99747 12.4143 7.37255 12.0392C7.74762 11.6641 7.95833 11.1554 7.95833 10.625V9.95833M4.625 1.95833C4.625 1.60471 4.76548 1.26557 5.01552 1.01552C5.26557 0.765476 5.60471 0.625 5.95833 0.625C6.31196 0.625 6.65109 0.765476 6.90114 1.01552C7.15119 1.26557 7.29167 1.60471 7.29167 1.95833C8.05727 2.32035 8.70993 2.88388 9.1797 3.58853C9.64947 4.29318 9.91863 5.11238 9.95833 5.95833V7.95833C10.0085 8.3728 10.1553 8.76971 10.3869 9.11708C10.6185 9.46446 10.9284 9.75261 11.2917 9.95833H0.625C0.988292 9.75261 1.29821 9.46446 1.52979 9.11708C1.76138 8.76971 1.90816 8.3728 1.95833 7.95833V5.95833C1.99804 5.11238 2.2672 4.29318 2.73697 3.58853C3.20673 2.88388 3.85939 2.32035 4.625 1.95833Z" stroke="#121212" stroke-width="1.25" stroke-linecap="round" stroke-linejoin="round"/>
</svg>
