<svg width="15" height="15" viewBox="0 0 15 15" fill="none" xmlns="http://www.w3.org/2000/svg">
<path d="M2.29167 7.29167C1.84964 7.29167 1.42572 7.11607 1.11316 6.80351C0.800595 6.49095 0.625 6.06703 0.625 5.625C0.625 5.18297 0.800595 4.75905 1.11316 4.44649C1.42572 4.13393 1.84964 3.95833 2.29167 3.95833M2.29167 7.29167C2.73369 7.29167 3.15762 7.11607 3.47018 6.80351C3.78274 6.49095 3.95833 6.06703 3.95833 5.625C3.95833 5.18297 3.78274 4.75905 3.47018 4.44649C3.15762 4.13393 2.73369 3.95833 2.29167 3.95833M2.29167 7.29167V13.9583M2.29167 3.95833V0.625M7.29167 12.2917C6.84964 12.2917 6.42572 12.1161 6.11316 11.8035C5.80059 11.491 5.625 11.067 5.625 10.625C5.625 10.183 5.80059 9.75905 6.11316 9.44649C6.42572 9.13393 6.84964 8.95833 7.29167 8.95833M7.29167 12.2917C7.73369 12.2917 8.15762 12.1161 8.47018 11.8035C8.78274 11.491 8.95833 11.067 8.95833 10.625C8.95833 10.183 8.78274 9.75905 8.47018 9.44649C8.15762 9.13393 7.73369 8.95833 7.29167 8.95833M7.29167 12.2917V13.9583M7.29167 8.95833V0.625M12.2917 4.79167C11.8496 4.79167 11.4257 4.61607 11.1132 4.30351C10.8006 3.99095 10.625 3.56703 10.625 3.125C10.625 2.68297 10.8006 2.25905 11.1132 1.94649C11.4257 1.63393 11.8496 1.45833 12.2917 1.45833M12.2917 4.79167C12.7337 4.79167 13.1576 4.61607 13.4702 4.30351C13.7827 3.99095 13.9583 3.56703 13.9583 3.125C13.9583 2.68297 13.7827 2.25905 13.4702 1.94649C13.1576 1.63393 12.7337 1.45833 12.2917 1.45833M12.2917 4.79167V13.9583M12.2917 1.45833V0.625" stroke="#2E2E2E" stroke-width="1.25" stroke-linecap="round" stroke-linejoin="round"/>
</svg>
