<svg width="7" height="12" viewBox="0 0 7 12" fill="none" xmlns="http://www.w3.org/2000/svg">
<path d="M0.5 1.16667C0.5 1.34348 0.570238 1.51305 0.695262 1.63807C0.820287 1.7631 0.989856 1.83333 1.16667 1.83333C1.34348 1.83333 1.51305 1.7631 1.63807 1.63807C1.7631 1.51305 1.83333 1.34348 1.83333 1.16667C1.83333 0.989856 1.7631 0.820287 1.63807 0.695262C1.51305 0.570238 1.34348 0.5 1.16667 0.5C0.989856 0.5 0.820287 0.570238 0.695262 0.695262C0.570238 0.820287 0.5 0.989856 0.5 1.16667Z" stroke="#2E2E2E" stroke-linecap="round" stroke-linejoin="round"/>
<path d="M0.5 5.83333C0.5 6.01014 0.570238 6.17971 0.695262 6.30474C0.820287 6.42976 0.989856 6.5 1.16667 6.5C1.34348 6.5 1.51305 6.42976 1.63807 6.30474C1.7631 6.17971 1.83333 6.01014 1.83333 5.83333C1.83333 5.65652 1.7631 5.48695 1.63807 5.36193C1.51305 5.2369 1.34348 5.16667 1.16667 5.16667C0.989856 5.16667 0.820287 5.2369 0.695262 5.36193C0.570238 5.48695 0.5 5.65652 0.5 5.83333Z" stroke="#2E2E2E" stroke-linecap="round" stroke-linejoin="round"/>
<path d="M0.5 10.5C0.5 10.6768 0.570238 10.8464 0.695262 10.9714C0.820287 11.0964 0.989856 11.1667 1.16667 11.1667C1.34348 11.1667 1.51305 11.0964 1.63807 10.9714C1.7631 10.8464 1.83333 10.6768 1.83333 10.5C1.83333 10.3232 1.7631 10.1536 1.63807 10.0286C1.51305 9.90357 1.34348 9.83333 1.16667 9.83333C0.989856 9.83333 0.820287 9.90357 0.695262 10.0286C0.570238 10.1536 0.5 10.3232 0.5 10.5Z" stroke="#2E2E2E" stroke-linecap="round" stroke-linejoin="round"/>
<path d="M4.5 1.16667C4.5 1.34348 4.57024 1.51305 4.69526 1.63807C4.82029 1.7631 4.98986 1.83333 5.16667 1.83333C5.34348 1.83333 5.51305 1.7631 5.63807 1.63807C5.7631 1.51305 5.83333 1.34348 5.83333 1.16667C5.83333 0.989856 5.7631 0.820287 5.63807 0.695262C5.51305 0.570238 5.34348 0.5 5.16667 0.5C4.98986 0.5 4.82029 0.570238 4.69526 0.695262C4.57024 0.820287 4.5 0.989856 4.5 1.16667Z" stroke="#2E2E2E" stroke-linecap="round" stroke-linejoin="round"/>
<path d="M4.5 5.83333C4.5 6.01014 4.57024 6.17971 4.69526 6.30474C4.82029 6.42976 4.98986 6.5 5.16667 6.5C5.34348 6.5 5.51305 6.42976 5.63807 6.30474C5.7631 6.17971 5.83333 6.01014 5.83333 5.83333C5.83333 5.65652 5.7631 5.48695 5.63807 5.36193C5.51305 5.2369 5.34348 5.16667 5.16667 5.16667C4.98986 5.16667 4.82029 5.2369 4.69526 5.36193C4.57024 5.48695 4.5 5.65652 4.5 5.83333Z" stroke="#2E2E2E" stroke-linecap="round" stroke-linejoin="round"/>
<path d="M4.5 10.5C4.5 10.6768 4.57024 10.8464 4.69526 10.9714C4.82029 11.0964 4.98986 11.1667 5.16667 11.1667C5.34348 11.1667 5.51305 11.0964 5.63807 10.9714C5.7631 10.8464 5.83333 10.6768 5.83333 10.5C5.83333 10.3232 5.7631 10.1536 5.63807 10.0286C5.51305 9.90357 5.34348 9.83333 5.16667 9.83333C4.98986 9.83333 4.82029 9.90357 4.69526 10.0286C4.57024 10.1536 4.5 10.3232 4.5 10.5Z" stroke="#2E2E2E" stroke-linecap="round" stroke-linejoin="round"/>
</svg>
