<svg width="12" height="14" viewBox="0 0 12 14" fill="none" xmlns="http://www.w3.org/2000/svg">
<path d="M3.95839 9.95833V10.625C3.95839 11.1554 4.16911 11.6641 4.54418 12.0392C4.91925 12.4143 5.42796 12.625 5.95839 12.625C6.48883 12.625 6.99754 12.4143 7.37261 12.0392C7.74768 11.6641 7.95839 11.1554 7.95839 10.625V9.95833M4.62506 1.95833C4.62506 1.60471 4.76554 1.26557 5.01559 1.01552C5.26563 0.765476 5.60477 0.625 5.95839 0.625C6.31202 0.625 6.65115 0.765476 6.9012 1.01552C7.15125 1.26557 7.29173 1.60471 7.29173 1.95833C8.05733 2.32035 8.71 2.88388 9.17976 3.58853C9.64953 4.29318 9.91869 5.11238 9.95839 5.95833V7.95833C10.0086 8.3728 10.1554 8.76971 10.3869 9.11708C10.6185 9.46446 10.9284 9.75261 11.2917 9.95833H0.625061C0.988353 9.75261 1.29827 9.46446 1.52985 9.11708C1.76144 8.76971 1.90822 8.3728 1.95839 7.95833V5.95833C1.9981 5.11238 2.26726 4.29318 2.73703 3.58853C3.20679 2.88388 3.85946 2.32035 4.62506 1.95833Z" stroke="#121212" stroke-width="1.25" stroke-linecap="round" stroke-linejoin="round"/>
</svg>
