<svg width="15" height="15" viewBox="0 0 15 15" fill="none" xmlns="http://www.w3.org/2000/svg">
<path d="M4.79187 9.79187L9.79187 4.79187M6.45854 2.29192L6.84437 1.84525C7.62588 1.06386 8.68578 0.624922 9.79092 0.625C10.8961 0.625078 11.9559 1.06417 12.7373 1.84567C13.5187 2.62718 13.9576 3.68708 13.9575 4.79222C13.9575 5.89735 13.5184 6.95719 12.7369 7.73859L12.2919 8.12526M8.12512 12.2919L7.79429 12.7369C7.00366 13.5187 5.93661 13.9572 4.8247 13.9572C3.71279 13.9572 2.64574 13.5187 1.85512 12.7369C1.46542 12.3515 1.15603 11.8927 0.944877 11.387C0.733724 10.8813 0.625 10.3387 0.625 9.79062C0.625 9.24258 0.733724 8.69998 0.944877 8.19425C1.15603 7.68852 1.46542 7.2297 1.85512 6.84437L2.29178 6.45854" stroke="#2E2E2E" stroke-width="1.25" stroke-linecap="round" stroke-linejoin="round"/>
</svg>
