<svg width="14" height="14" viewBox="0 0 14 14" fill="none" xmlns="http://www.w3.org/2000/svg">
<path d="M2.75 8.75V8.08333C2.75 7.72971 2.89048 7.39057 3.14052 7.14052C3.39057 6.89048 3.72971 6.75 4.08333 6.75H9.41667C9.77029 6.75 10.1094 6.89048 10.3595 7.14052C10.6095 7.39057 10.75 7.72971 10.75 8.08333V8.75M6.75 4.75V6.75M0.75 10.0833C0.75 9.72971 0.890476 9.39057 1.14052 9.14052C1.39057 8.89048 1.72971 8.75 2.08333 8.75H3.41667C3.77029 8.75 4.10943 8.89048 4.35948 9.14052C4.60952 9.39057 4.75 9.72971 4.75 10.0833V11.4167C4.75 11.7703 4.60952 12.1094 4.35948 12.3595C4.10943 12.6095 3.77029 12.75 3.41667 12.75H2.08333C1.72971 12.75 1.39057 12.6095 1.14052 12.3595C0.890476 12.1094 0.75 11.7703 0.75 11.4167V10.0833ZM8.75 10.0833C8.75 9.72971 8.89048 9.39057 9.14052 9.14052C9.39057 8.89048 9.72971 8.75 10.0833 8.75H11.4167C11.7703 8.75 12.1094 8.89048 12.3595 9.14052C12.6095 9.39057 12.75 9.72971 12.75 10.0833V11.4167C12.75 11.7703 12.6095 12.1094 12.3595 12.3595C12.1094 12.6095 11.7703 12.75 11.4167 12.75H10.0833C9.72971 12.75 9.39057 12.6095 9.14052 12.3595C8.89048 12.1094 8.75 11.7703 8.75 11.4167V10.0833ZM4.75 2.08333C4.75 1.72971 4.89048 1.39057 5.14052 1.14052C5.39057 0.890476 5.72971 0.75 6.08333 0.75H7.41667C7.77029 0.75 8.10943 0.890476 8.35948 1.14052C8.60952 1.39057 8.75 1.72971 8.75 2.08333V3.41667C8.75 3.77029 8.60952 4.10943 8.35948 4.35948C8.10943 4.60952 7.77029 4.75 7.41667 4.75H6.08333C5.72971 4.75 5.39057 4.60952 5.14052 4.35948C4.89048 4.10943 4.75 3.77029 4.75 3.41667V2.08333Z" stroke="#C99411" stroke-width="1.5" stroke-linecap="round" stroke-linejoin="round"/>
</svg>
