<svg width="17" height="15" viewBox="0 0 17 15" fill="none" xmlns="http://www.w3.org/2000/svg">
<path d="M3.95833 13.9583H12.2917M5.625 10.625V13.9583M10.625 10.625V13.9583M4.79167 7.29167L7.29167 4.79167L8.95833 6.45833L11.4583 3.95833M0.625 1.45833C0.625 1.23732 0.712797 1.02536 0.869078 0.869078C1.02536 0.712798 1.23732 0.625 1.45833 0.625H14.7917C15.0127 0.625 15.2246 0.712798 15.3809 0.869078C15.5372 1.02536 15.625 1.23732 15.625 1.45833V9.79167C15.625 10.0127 15.5372 10.2246 15.3809 10.3809C15.2246 10.5372 15.0127 10.625 14.7917 10.625H1.45833C1.23732 10.625 1.02536 10.5372 0.869078 10.3809C0.712797 10.2246 0.625 10.0127 0.625 9.79167V1.45833Z" stroke="#2E2E2E" stroke-width="1.25" stroke-linecap="round" stroke-linejoin="round"/>
</svg>
