<svg width="14" height="14" viewBox="0 0 14 14" fill="none" xmlns="http://www.w3.org/2000/svg">
<path d="M6.625 4.625H6.63167M5.95833 6.625H6.625V9.29167H7.29167M0.625 6.625C0.625 7.41293 0.780195 8.19315 1.08172 8.9211C1.38325 9.64905 1.82521 10.3105 2.38236 10.8676C2.93951 11.4248 3.60095 11.8667 4.3289 12.1683C5.05685 12.4698 5.83707 12.625 6.625 12.625C7.41293 12.625 8.19315 12.4698 8.9211 12.1683C9.64905 11.8667 10.3105 11.4248 10.8676 10.8676C11.4248 10.3105 11.8667 9.64905 12.1683 8.9211C12.4698 8.19315 12.625 7.41293 12.625 6.625C12.625 5.0337 11.9929 3.50758 10.8676 2.38236C9.74242 1.25714 8.2163 0.625 6.625 0.625C5.0337 0.625 3.50758 1.25714 2.38236 2.38236C1.25714 3.50758 0.625 5.0337 0.625 6.625Z" stroke="#9E9E9E" stroke-width="1.25" stroke-linecap="round" stroke-linejoin="round"/>
</svg>
