<svg width="15" height="17" viewBox="0 0 15 17" fill="none" xmlns="http://www.w3.org/2000/svg">
<path d="M0.625 3.125C0.625 3.78804 1.32738 4.42393 2.57762 4.89277C3.82786 5.36161 5.52356 5.625 7.29167 5.625C9.05978 5.625 10.7555 5.36161 12.0057 4.89277C13.256 4.42393 13.9583 3.78804 13.9583 3.125M0.625 3.125C0.625 2.46196 1.32738 1.82607 2.57762 1.35723C3.82786 0.888392 5.52356 0.625 7.29167 0.625C9.05978 0.625 10.7555 0.888392 12.0057 1.35723C13.256 1.82607 13.9583 2.46196 13.9583 3.125M0.625 3.125V8.125M13.9583 3.125V8.125M0.625 8.125C0.625 8.78804 1.32738 9.42393 2.57762 9.89277C3.82786 10.3616 5.52356 10.625 7.29167 10.625C9.05978 10.625 10.7555 10.3616 12.0057 9.89277C13.256 9.42393 13.9583 8.78804 13.9583 8.125M0.625 8.125V13.125C0.625 13.788 1.32738 14.4239 2.57762 14.8928C3.82786 15.3616 5.52356 15.625 7.29167 15.625C9.05978 15.625 10.7555 15.3616 12.0057 14.8928C13.256 14.4239 13.9583 13.788 13.9583 13.125V8.125" stroke="#2E2E2E" stroke-width="1.25" stroke-linecap="round" stroke-linejoin="round"/>
</svg>
