<svg width="10" height="10" viewBox="0 0 10 10" fill="none" xmlns="http://www.w3.org/2000/svg">
<path d="M1.66667 2.83333C1.43592 2.83333 1.21036 2.76491 1.0185 2.63672C0.826645 2.50852 0.67711 2.32631 0.588808 2.11313C0.500505 1.89995 0.477402 1.66537 0.522418 1.43906C0.567434 1.21275 0.678548 1.00487 0.841709 0.841709C1.00487 0.678548 1.21275 0.567434 1.43906 0.522418C1.66537 0.477402 1.89995 0.500505 2.11313 0.588808C2.32631 0.67711 2.50852 0.826645 2.63672 1.0185C2.76491 1.21036 2.83333 1.43592 2.83333 1.66667V7.5C2.83333 7.73075 2.76491 7.95631 2.63672 8.14817C2.50852 8.34002 2.32631 8.48956 2.11313 8.57786C1.89995 8.66616 1.66537 8.68927 1.43906 8.64425C1.21275 8.59923 1.00487 8.48812 0.841709 8.32496C0.678548 8.1618 0.567434 7.95392 0.522418 7.72761C0.477402 7.5013 0.500505 7.26672 0.588808 7.05354C0.67711 6.84036 0.826645 6.65815 1.0185 6.52995C1.21036 6.40176 1.43592 6.33333 1.66667 6.33333H7.5C7.73075 6.33333 7.95631 6.40176 8.14817 6.52995C8.34002 6.65815 8.48956 6.84036 8.57786 7.05354C8.66616 7.26672 8.68927 7.5013 8.64425 7.72761C8.59923 7.95392 8.48812 8.1618 8.32496 8.32496C8.1618 8.48812 7.95392 8.59923 7.72761 8.64425C7.5013 8.68927 7.26672 8.66616 7.05354 8.57786C6.84036 8.48956 6.65815 8.34002 6.52995 8.14817C6.40176 7.95631 6.33333 7.73075 6.33333 7.5V1.66667C6.33333 1.43592 6.40176 1.21036 6.52995 1.0185C6.65815 0.826645 6.84036 0.67711 7.05354 0.588808C7.26672 0.500505 7.5013 0.477402 7.72761 0.522418C7.95392 0.567434 8.1618 0.678548 8.32496 0.841709C8.48812 1.00487 8.59923 1.21275 8.64425 1.43906C8.68927 1.66537 8.66616 1.89995 8.57786 2.11313C8.48956 2.32631 8.34002 2.50852 8.14817 2.63672C7.95631 2.76491 7.73075 2.83333 7.5 2.83333H1.66667Z" stroke="#121212" stroke-linecap="round" stroke-linejoin="round"/>
</svg>
