<svg width="14" height="14" viewBox="0 0 14 14" fill="none" xmlns="http://www.w3.org/2000/svg">
<path d="M12.625 12.625L8.625 8.625M0.625 5.29167C0.625 5.9045 0.745707 6.51134 0.980229 7.07752C1.21475 7.64371 1.55849 8.15816 1.99183 8.5915C2.42518 9.02484 2.93962 9.36858 3.50581 9.60311C4.072 9.83763 4.67883 9.95833 5.29167 9.95833C5.9045 9.95833 6.51134 9.83763 7.07752 9.60311C7.64371 9.36858 8.15816 9.02484 8.5915 8.5915C9.02484 8.15816 9.36858 7.64371 9.60311 7.07752C9.83763 6.51134 9.95833 5.9045 9.95833 5.29167C9.95833 4.67883 9.83763 4.072 9.60311 3.50581C9.36858 2.93962 9.02484 2.42518 8.5915 1.99183C8.15816 1.55849 7.64371 1.21475 7.07752 0.980229C6.51134 0.745707 5.9045 0.625 5.29167 0.625C4.67883 0.625 4.072 0.745707 3.50581 0.980229C2.93962 1.21475 2.42518 1.55849 1.99183 1.99183C1.55849 2.42518 1.21475 2.93962 0.980229 3.50581C0.745707 4.072 0.625 4.67883 0.625 5.29167Z" stroke="#121212" stroke-width="1.25" stroke-linecap="round" stroke-linejoin="round"/>
</svg>
