<svg width="15" height="15" viewBox="0 0 15 15" fill="none" xmlns="http://www.w3.org/2000/svg">
<path d="M10.725 9.91646C8.88331 11.0273 5.89831 11.0273 4.05831 9.91646M13.225 4.67481L8.78083 1.21814C8.39083 0.914731 7.9108 0.75 7.41667 0.75C6.92254 0.75 6.44251 0.914731 6.0525 1.21814L1.6075 4.67481C1.34037 4.88255 1.12424 5.14858 0.97563 5.4526C0.827015 5.75662 0.74984 6.09058 0.75 6.42897V12.429C0.75 12.871 0.925595 13.2949 1.23816 13.6075C1.55072 13.92 1.97464 14.0956 2.41667 14.0956H12.4167C12.8587 14.0956 13.2826 13.92 13.5952 13.6075C13.9077 13.2949 14.0833 12.871 14.0833 12.429V6.42897C14.0833 5.74314 13.7667 5.09564 13.225 4.67481Z" stroke="#121212" stroke-width="1.5" stroke-linecap="round" stroke-linejoin="round"/>
</svg>
